<mxfile host="Electron" modified="2023-11-04T14:52:06.409Z" agent="Mozilla/5.0 (Macintosh; Intel Mac OS X 10_15_7) AppleWebKit/537.36 (KHTML, like Gecko) draw.io/22.0.3 Chrome/114.0.5735.289 Electron/25.8.4 Safari/537.36" etag="IWlUdtZYQh9Sw_ZQBjd6" version="22.0.3" type="device">
  <diagram name="Страница — 1" id="fA7D3sdXyef4y8BK_pek">
    <mxGraphModel dx="2336" dy="1143" grid="1" gridSize="10" guides="1" tooltips="1" connect="1" arrows="1" fold="1" page="1" pageScale="1" pageWidth="827" pageHeight="1169" math="0" shadow="0">
      <root>
        <mxCell id="0" />
        <mxCell id="1" parent="0" />
        <mxCell id="kwWLvMw_4-D7OwgcWH1--1" value="env&lt;br&gt;&quot;minikube-node&quot;" style="verticalAlign=top;align=center;spacingTop=8;spacingLeft=2;spacingRight=12;shape=cube;size=10;direction=south;fontStyle=4;html=1;whiteSpace=wrap;strokeColor=#999999;" parent="1" vertex="1">
          <mxGeometry x="-330" y="150" width="1170" height="560" as="geometry" />
        </mxCell>
        <mxCell id="kwWLvMw_4-D7OwgcWH1--2" value="namespce&lt;br&gt;&quot;default&quot;" style="verticalAlign=top;align=center;spacingTop=8;spacingLeft=2;spacingRight=12;shape=cube;size=10;direction=south;fontStyle=4;html=1;whiteSpace=wrap;strokeColor=#999999;" parent="1" vertex="1">
          <mxGeometry x="120" y="200" width="690" height="480" as="geometry" />
        </mxCell>
        <mxCell id="kwWLvMw_4-D7OwgcWH1--3" value="service&lt;br&gt;&quot;app-nodeport&quot;" style="verticalAlign=top;align=center;spacingTop=8;spacingLeft=2;spacingRight=12;shape=cube;size=10;direction=south;fontStyle=4;html=1;whiteSpace=wrap;" parent="1" vertex="1">
          <mxGeometry x="190" y="395" width="180" height="120" as="geometry" />
        </mxCell>
        <mxCell id="kwWLvMw_4-D7OwgcWH1--4" value="deployment&lt;br&gt;&quot;frontend-l3&quot;" style="verticalAlign=top;align=center;spacingTop=8;spacingLeft=2;spacingRight=12;shape=cube;size=10;direction=south;fontStyle=4;html=1;whiteSpace=wrap;" parent="1" vertex="1">
          <mxGeometry x="470" y="250" width="300" height="410" as="geometry" />
        </mxCell>
        <mxCell id="kwWLvMw_4-D7OwgcWH1--5" value="replica set&lt;br&gt;" style="verticalAlign=top;align=center;spacingTop=8;spacingLeft=2;spacingRight=12;shape=cube;size=10;direction=south;fontStyle=4;html=1;whiteSpace=wrap;" parent="1" vertex="1">
          <mxGeometry x="505" y="300" width="230" height="350" as="geometry" />
        </mxCell>
        <mxCell id="kwWLvMw_4-D7OwgcWH1--6" value="pod&lt;br&gt;&lt;div style=&quot;&quot;&gt;&lt;pre style=&quot;&quot;&gt;&lt;font face=&quot;JetBrains Mono, monospace&quot;&gt;frontend-l3-655545f7f5-n64hx&lt;br&gt;&lt;/font&gt;&lt;/pre&gt;&lt;/div&gt;" style="verticalAlign=top;align=center;spacingTop=8;spacingLeft=2;spacingRight=12;shape=cube;size=10;direction=south;fontStyle=4;html=1;whiteSpace=wrap;" parent="1" vertex="1">
          <mxGeometry x="520" y="520" width="200" height="110" as="geometry" />
        </mxCell>
        <mxCell id="kwWLvMw_4-D7OwgcWH1--7" value="&lt;span style=&quot;background-color: rgb(255, 255, 255);&quot;&gt;pod&lt;br&gt;&lt;/span&gt;&lt;div style=&quot;&quot;&gt;&lt;pre style=&quot;&quot;&gt;&lt;font face=&quot;JetBrains Mono, monospace&quot;&gt;frontend-l3-655545f7f5-2n5v7&lt;br&gt;&lt;/font&gt;&lt;/pre&gt;&lt;/div&gt;" style="verticalAlign=top;align=center;spacingTop=8;spacingLeft=2;spacingRight=12;shape=cube;size=10;direction=south;fontStyle=4;html=1;whiteSpace=wrap;" parent="1" vertex="1">
          <mxGeometry x="520" y="360" width="200" height="110" as="geometry" />
        </mxCell>
        <mxCell id="kwWLvMw_4-D7OwgcWH1--9" style="rounded=0;orthogonalLoop=1;jettySize=auto;html=1;dashed=1;" parent="1" source="kwWLvMw_4-D7OwgcWH1--3" target="kwWLvMw_4-D7OwgcWH1--7" edge="1">
          <mxGeometry relative="1" as="geometry" />
        </mxCell>
        <mxCell id="kwWLvMw_4-D7OwgcWH1--10" style="rounded=0;orthogonalLoop=1;jettySize=auto;html=1;dashed=1;" parent="1" source="kwWLvMw_4-D7OwgcWH1--3" target="kwWLvMw_4-D7OwgcWH1--6" edge="1">
          <mxGeometry relative="1" as="geometry" />
        </mxCell>
        <mxCell id="u00L3Retf9o4FMxTzMm7-4" style="edgeStyle=orthogonalEdgeStyle;rounded=0;orthogonalLoop=1;jettySize=auto;html=1;" edge="1" parent="1" source="tci-Rh7tp59hc8q8Y90O-1" target="u00L3Retf9o4FMxTzMm7-12">
          <mxGeometry relative="1" as="geometry">
            <mxPoint x="-300" y="455" as="targetPoint" />
          </mxGeometry>
        </mxCell>
        <mxCell id="u00L3Retf9o4FMxTzMm7-10" value="lab3terekhov.com" style="edgeLabel;html=1;align=center;verticalAlign=middle;resizable=0;points=[];" vertex="1" connectable="0" parent="u00L3Retf9o4FMxTzMm7-4">
          <mxGeometry x="0.2444" y="-1" relative="1" as="geometry">
            <mxPoint x="-25" y="-1" as="offset" />
          </mxGeometry>
        </mxCell>
        <mxCell id="tci-Rh7tp59hc8q8Y90O-1" value="User" style="shape=umlActor;verticalLabelPosition=bottom;verticalAlign=top;html=1;" parent="1" vertex="1">
          <mxGeometry x="-460" y="425" width="30" height="60" as="geometry" />
        </mxCell>
        <mxCell id="u00L3Retf9o4FMxTzMm7-5" style="edgeStyle=orthogonalEdgeStyle;rounded=0;orthogonalLoop=1;jettySize=auto;html=1;" edge="1" parent="1" source="u00L3Retf9o4FMxTzMm7-12" target="u00L3Retf9o4FMxTzMm7-13">
          <mxGeometry relative="1" as="geometry">
            <mxPoint x="-150" y="455" as="sourcePoint" />
            <mxPoint x="-110" y="455" as="targetPoint" />
          </mxGeometry>
        </mxCell>
        <mxCell id="u00L3Retf9o4FMxTzMm7-7" style="edgeStyle=orthogonalEdgeStyle;rounded=0;orthogonalLoop=1;jettySize=auto;html=1;" edge="1" parent="1" source="u00L3Retf9o4FMxTzMm7-13" target="kwWLvMw_4-D7OwgcWH1--3">
          <mxGeometry relative="1" as="geometry">
            <mxPoint x="40" y="455" as="sourcePoint" />
          </mxGeometry>
        </mxCell>
        <mxCell id="u00L3Retf9o4FMxTzMm7-8" value="Port 3000" style="edgeLabel;html=1;align=center;verticalAlign=middle;resizable=0;points=[];" vertex="1" connectable="0" parent="u00L3Retf9o4FMxTzMm7-7">
          <mxGeometry x="-0.2356" y="2" relative="1" as="geometry">
            <mxPoint as="offset" />
          </mxGeometry>
        </mxCell>
        <mxCell id="u00L3Retf9o4FMxTzMm7-6" style="rounded=0;orthogonalLoop=1;jettySize=auto;html=1;entryX=0.535;entryY=-0.003;entryDx=0;entryDy=0;entryPerimeter=0;" edge="1" parent="1" source="u00L3Retf9o4FMxTzMm7-14" target="u00L3Retf9o4FMxTzMm7-13">
          <mxGeometry relative="1" as="geometry">
            <mxPoint x="-35" y="407.5" as="targetPoint" />
          </mxGeometry>
        </mxCell>
        <mxCell id="u00L3Retf9o4FMxTzMm7-11" value="lab3" style="shape=umlFrame;whiteSpace=wrap;html=1;pointerEvents=0;" vertex="1" parent="1">
          <mxGeometry x="-510" y="100" width="1390" height="670" as="geometry" />
        </mxCell>
        <mxCell id="u00L3Retf9o4FMxTzMm7-12" value="Module&lt;br&gt;&quot;&lt;u&gt;IngressController&lt;/u&gt;&quot;" style="shape=module;align=left;spacingLeft=20;align=center;verticalAlign=top;whiteSpace=wrap;html=1;" vertex="1" parent="1">
          <mxGeometry x="-300" y="415" width="160" height="80" as="geometry" />
        </mxCell>
        <mxCell id="u00L3Retf9o4FMxTzMm7-13" value="Module&lt;br&gt;&quot;&lt;u&gt;Ingress&lt;/u&gt;&quot;" style="shape=module;align=left;spacingLeft=20;align=center;verticalAlign=top;whiteSpace=wrap;html=1;" vertex="1" parent="1">
          <mxGeometry x="-100" y="415" width="160" height="80" as="geometry" />
        </mxCell>
        <mxCell id="u00L3Retf9o4FMxTzMm7-14" value="Module&lt;br&gt;&quot;&lt;u&gt;Secret with TLS&lt;/u&gt;&quot;" style="shape=module;align=left;spacingLeft=20;align=center;verticalAlign=top;whiteSpace=wrap;html=1;" vertex="1" parent="1">
          <mxGeometry x="-100" y="250" width="170" height="80" as="geometry" />
        </mxCell>
      </root>
    </mxGraphModel>
  </diagram>
</mxfile>
